<svg width="60" height="60" viewBox="0 0 60 60" fill="none" xmlns="http://www.w3.org/2000/svg">
<path d="M48.75 24.375C48.75 29.7539 47.0039 34.7227 44.0625 38.7539L58.8984 53.6016C60.3633 55.0664 60.3633 57.4453 58.8984 58.9102C57.4336 60.375 55.0547 60.375 53.5898 58.9102L38.7539 44.0625C34.7227 47.0156 29.7539 48.75 24.375 48.75C10.9102 48.75 0 37.8398 0 24.375C0 10.9102 10.9102 0 24.375 0C37.8398 0 48.75 10.9102 48.75 24.375ZM24.375 41.25C26.5911 41.25 28.7854 40.8135 30.8328 39.9655C32.8802 39.1174 34.7404 37.8744 36.3074 36.3074C37.8744 34.7404 39.1174 32.8802 39.9655 30.8328C40.8135 28.7854 41.25 26.5911 41.25 24.375C41.25 22.1589 40.8135 19.9646 39.9655 17.9172C39.1174 15.8698 37.8744 14.0096 36.3074 12.4426C34.7404 10.8756 32.8802 9.63258 30.8328 8.78453C28.7854 7.93649 26.5911 7.5 24.375 7.5C22.1589 7.5 19.9646 7.93649 17.9172 8.78453C15.8698 9.63258 14.0096 10.8756 12.4426 12.4426C10.8756 14.0096 9.63258 15.8698 8.78453 17.9172C7.93648 19.9646 7.5 22.1589 7.5 24.375C7.5 26.5911 7.93648 28.7854 8.78453 30.8328C9.63258 32.8802 10.8756 34.7404 12.4426 36.3074C14.0096 37.8744 15.8698 39.1174 17.9172 39.9655C19.9646 40.8135 22.1589 41.25 24.375 41.25Z" fill="#722F37"/>
</svg>
