<svg width="195" height="195" viewBox="0 0 195 195" fill="none" xmlns="http://www.w3.org/2000/svg">
<circle cx="97.5" cy="97.5" r="97.5" fill="#D9D9D9"/>
<path d="M46.2273 111V76.0909H50.4545V107.25H66.6818V111H46.2273ZM83.3182 111.545C80.9545 111.545 78.8807 110.983 77.0966 109.858C75.3239 108.733 73.9375 107.159 72.9375 105.136C71.9489 103.114 71.4545 100.75 71.4545 98.0455C71.4545 95.3182 71.9489 92.9375 72.9375 90.9034C73.9375 88.8693 75.3239 87.2898 77.0966 86.1648C78.8807 85.0398 80.9545 84.4773 83.3182 84.4773C85.6818 84.4773 87.75 85.0398 89.5227 86.1648C91.3068 87.2898 92.6932 88.8693 93.6818 90.9034C94.6818 92.9375 95.1818 95.3182 95.1818 98.0455C95.1818 100.75 94.6818 103.114 93.6818 105.136C92.6932 107.159 91.3068 108.733 89.5227 109.858C87.75 110.983 85.6818 111.545 83.3182 111.545ZM83.3182 107.932C85.1136 107.932 86.5909 107.472 87.75 106.551C88.9091 105.631 89.767 104.42 90.3239 102.92C90.8807 101.42 91.1591 99.7955 91.1591 98.0455C91.1591 96.2955 90.8807 94.6648 90.3239 93.1534C89.767 91.642 88.9091 90.4205 87.75 89.4886C86.5909 88.5568 85.1136 88.0909 83.3182 88.0909C81.5227 88.0909 80.0455 88.5568 78.8864 89.4886C77.7273 90.4205 76.8693 91.642 76.3125 93.1534C75.7557 94.6648 75.4773 96.2955 75.4773 98.0455C75.4773 99.7955 75.7557 101.42 76.3125 102.92C76.8693 104.42 77.7273 105.631 78.8864 106.551C80.0455 107.472 81.5227 107.932 83.3182 107.932ZM111.891 121.364C109.947 121.364 108.277 121.114 106.879 120.614C105.482 120.125 104.317 119.477 103.385 118.67C102.464 117.875 101.732 117.023 101.186 116.114L104.391 113.864C104.754 114.341 105.214 114.886 105.771 115.5C106.328 116.125 107.089 116.665 108.055 117.119C109.033 117.585 110.311 117.818 111.891 117.818C114.004 117.818 115.749 117.307 117.124 116.284C118.499 115.261 119.186 113.659 119.186 111.477V106.159H118.845C118.55 106.636 118.129 107.227 117.584 107.932C117.05 108.625 116.277 109.244 115.266 109.79C114.266 110.324 112.913 110.591 111.209 110.591C109.095 110.591 107.197 110.091 105.516 109.091C103.845 108.091 102.521 106.636 101.544 104.727C100.578 102.818 100.095 100.5 100.095 97.7727C100.095 95.0909 100.567 92.7557 101.51 90.767C102.453 88.767 103.766 87.2216 105.447 86.1307C107.129 85.0284 109.072 84.4773 111.277 84.4773C112.982 84.4773 114.334 84.7614 115.334 85.3295C116.345 85.8864 117.118 86.5227 117.652 87.2386C118.197 87.9432 118.618 88.5227 118.913 88.9773H119.322V84.8182H123.209V111.75C123.209 114 122.697 115.83 121.675 117.239C120.663 118.659 119.3 119.699 117.584 120.358C115.879 121.028 113.982 121.364 111.891 121.364ZM111.754 106.977C113.368 106.977 114.732 106.608 115.845 105.869C116.959 105.131 117.805 104.068 118.385 102.682C118.964 101.295 119.254 99.6364 119.254 97.7045C119.254 95.8182 118.97 94.1534 118.402 92.7102C117.834 91.267 116.993 90.1364 115.879 89.3182C114.766 88.5 113.391 88.0909 111.754 88.0909C110.05 88.0909 108.629 88.5227 107.493 89.3864C106.368 90.25 105.521 91.4091 104.953 92.8636C104.396 94.3182 104.118 95.9318 104.118 97.7045C104.118 99.5227 104.402 101.131 104.97 102.528C105.55 103.915 106.402 105.006 107.527 105.801C108.663 106.585 110.072 106.977 111.754 106.977ZM141.209 111.545C138.845 111.545 136.771 110.983 134.987 109.858C133.214 108.733 131.828 107.159 130.828 105.136C129.839 103.114 129.345 100.75 129.345 98.0455C129.345 95.3182 129.839 92.9375 130.828 90.9034C131.828 88.8693 133.214 87.2898 134.987 86.1648C136.771 85.0398 138.845 84.4773 141.209 84.4773C143.572 84.4773 145.641 85.0398 147.413 86.1648C149.197 87.2898 150.584 88.8693 151.572 90.9034C152.572 92.9375 153.072 95.3182 153.072 98.0455C153.072 100.75 152.572 103.114 151.572 105.136C150.584 107.159 149.197 108.733 147.413 109.858C145.641 110.983 143.572 111.545 141.209 111.545ZM141.209 107.932C143.004 107.932 144.482 107.472 145.641 106.551C146.8 105.631 147.658 104.42 148.214 102.92C148.771 101.42 149.05 99.7955 149.05 98.0455C149.05 96.2955 148.771 94.6648 148.214 93.1534C147.658 91.642 146.8 90.4205 145.641 89.4886C144.482 88.5568 143.004 88.0909 141.209 88.0909C139.413 88.0909 137.936 88.5568 136.777 89.4886C135.618 90.4205 134.76 91.642 134.203 93.1534C133.646 94.6648 133.368 96.2955 133.368 98.0455C133.368 99.7955 133.646 101.42 134.203 102.92C134.76 104.42 135.618 105.631 136.777 106.551C137.936 107.472 139.413 107.932 141.209 107.932Z" fill="#999999"/>
</svg>
